<svg id="Layer_1" data-name="Layer 1" xmlns="http://www.w3.org/2000/svg" viewBox="0 0 65 65"><defs><style>.cls-1{fill:none;stroke-width:1.8px;}.cls-1,.cls-2,.cls-4{stroke:#009cd8;}.cls-1,.cls-2{stroke-linejoin:round;}.cls-2{fill:#fff;stroke-width:1.7px;}.cls-3{fill:#009cd8;}.cls-4{fill:#0b9eda;stroke-miterlimit:10;stroke-width:0.4px;}</style></defs><polyline class="cls-1" points="11.74 42.64 11.74 2.96 52.63 2.96 52.63 42.64"/><polyline class="cls-1" points="11.74 42.2 11.74 62.77 52.63 62.77 52.63 42.2"/><line class="cls-2" x1="11.59" y1="42.64" x2="52.79" y2="42.64"/><path class="cls-3" d="M17.94,54.6A2.8,2.8,0,0,1,19.51,52a2.37,2.37,0,0,1-1.17-2.15c0-1.63,1.25-2.72,3.2-2.72s3.21,1.09,3.21,2.72A2.43,2.43,0,0,1,23.6,52a2.71,2.71,0,0,1,1.56,2.61c0,1.84-1.51,3.07-3.64,3.07S17.94,56.48,17.94,54.6Zm5.3-.13a1.7,1.7,0,1,0-1.7,1.73A1.64,1.64,0,0,0,23.24,54.47ZM23,50a1.45,1.45,0,1,0-1.45,1.39A1.37,1.37,0,0,0,23,50Z"/><path class="cls-3" d="M26.33,54.49h1.82a1.54,1.54,0,0,0,1.61,1.61c1.13,0,1.76-.68,1.76-2.05,0-1.16-.6-1.89-1.69-1.89a1.81,1.81,0,0,0-1.57.8h-1.7l.76-5.63h5.55V49h-4l-.31,2.15a2.41,2.41,0,0,1,1.6-.54,3.14,3.14,0,0,1,3.3,3.47,3.36,3.36,0,0,1-3.65,3.62C27.78,57.67,26.33,56.58,26.33,54.49Z"/><path class="cls-3" d="M34.38,49.81a2.67,2.67,0,0,1,2.73-2.67,2.59,2.59,0,0,1,2.72,2.67,2.68,2.68,0,0,1-2.72,2.69A2.62,2.62,0,0,1,34.38,49.81Zm4.07,0a1.35,1.35,0,0,0-1.34-1.39,1.33,1.33,0,0,0-1.35,1.39,1.3,1.3,0,0,0,1.35,1.39A1.33,1.33,0,0,0,38.45,49.81ZM42.6,47h1.28L38.17,57.82H36.88ZM41,55a2.67,2.67,0,0,1,2.72-2.67A2.59,2.59,0,0,1,46.44,55a2.68,2.68,0,0,1-2.72,2.69A2.61,2.61,0,0,1,41,55Zm4.06,0a1.35,1.35,0,0,0-1.34-1.39A1.33,1.33,0,0,0,42.37,55a1.31,1.31,0,0,0,1.35,1.4A1.33,1.33,0,0,0,45.06,55Z"/><path class="cls-4" d="M32.19,34.16a1.08,1.08,0,1,0,1.08,1.08A1.08,1.08,0,0,0,32.19,34.16Zm-7.94-.72H40.12V35.2A1.82,1.82,0,0,1,38.28,37H26.09a1.82,1.82,0,0,1-1.84-1.84Zm0-21.64H40.12V32H24.25Zm1.84-3.61H38.28A1.82,1.82,0,0,1,40.12,10v.33H24.25V10a1.82,1.82,0,0,1,1.84-1.84Zm0-1.44A3.29,3.29,0,0,0,22.81,10V35.2a3.09,3.09,0,0,0,3.28,3.29H38.28a3.3,3.3,0,0,0,3.28-3.29V10a3.29,3.29,0,0,0-3.28-3.28Z"/></svg>