<svg id="Layer_1" data-name="Layer 1" xmlns="http://www.w3.org/2000/svg" viewBox="0 0 65 65"><defs><style>.cls-1{fill:#00a0df;}</style></defs><path class="cls-1" d="M55,39.42a2.24,2.24,0,0,1-2.25,2.24H52V35.14h.77A2.25,2.25,0,0,1,55,37.39Zm-6.29,5H47.2a1.42,1.42,0,0,1-1.41-1.42v-9.3a1.41,1.41,0,0,1,1.41-1.41h1.5a1.41,1.41,0,0,1,1.42,1.41v9.31a1.42,1.42,0,0,1-1.42,1.41ZM36.9,62.25H27.36V59.12h9.53v3.13ZM15.55,32.33h1.5a1.42,1.42,0,0,1,1.42,1.42V43a1.42,1.42,0,0,1-1.42,1.42h-1.5A1.42,1.42,0,0,1,14.14,43V33.75a1.43,1.43,0,0,1,1.42-1.42ZM9.27,39.42v-2a2.25,2.25,0,0,1,2.25-2.25h.77v6.52h-.77a2.24,2.24,0,0,1-2.25-2.24ZM52.74,33.3H52V26.83a19.84,19.84,0,1,0-39.68,0v6.46h-.77a4.1,4.1,0,0,0-4.1,4.09v2a4.1,4.1,0,0,0,4.1,4.09h.81a3.26,3.26,0,0,0,3.22,2.81h1.5a3.26,3.26,0,0,0,3.26-3.26v-9.3a3.26,3.26,0,0,0-3.26-3.26h-1.5a3.15,3.15,0,0,0-1.41.34v-4a18,18,0,0,1,36,0v4a3.23,3.23,0,0,0-1.42-.34h-1.5A3.26,3.26,0,0,0,44,33.75v9.3a3.26,3.26,0,0,0,3.26,3.26h1.5A3.23,3.23,0,0,0,50.13,46V56.51a3.43,3.43,0,0,1-3.43,3.42h-8V58.2a.93.93,0,0,0-.92-.93H26.44a.93.93,0,0,0-.92.93v5a.92.92,0,0,0,.92.92H37.81a.92.92,0,0,0,.92-.92V61.78h8A5.28,5.28,0,0,0,52,56.51v-13h.77a4.09,4.09,0,0,0,4.09-4.09v-2a4.09,4.09,0,0,0-4.08-4.09Z"/></svg>