<svg id="Layer_1" data-name="Layer 1" xmlns="http://www.w3.org/2000/svg" viewBox="0 0 65 65"><defs><style>.cls-1{fill:#0b9eda;stroke:#009cd8;stroke-width:0.4px;}.cls-1,.cls-2{stroke-miterlimit:10;}.cls-2{fill:none;stroke:#0b9eda;stroke-linecap:round;stroke-width:1.5px;}</style></defs><path class="cls-1" d="M32.45,22.05s1,3.3,1,3.37L31.08,33a.53.53,0,0,0,.07.55.73.73,0,0,0,.41.35L36.3,35.3v.07l1.09,3.84L9.33,47.31,4.46,30.08ZM16.05,12,39.59,10.6l.48,7.47-3.23-1a.53.53,0,0,0-.55.07.74.74,0,0,0-.34.42l-1.72,5.62-.61-2.06a.55.55,0,0,0-.34-.41.73.73,0,0,0-.55-.07L16.81,25.14Zm39.8,28L32.59,32.76l4.46-14.2,23.26,7.27ZM8.23,48.34a.55.55,0,0,0,.34.41.52.52,0,0,0,.35.07h.2L23.53,44.7l4.88,17.23a.67.67,0,0,0,.68.48h.21a.75.75,0,0,0,.48-.83L24.9,44.36l6.32-1.79,1.16,19.22a.68.68,0,0,0,.69.61h.07a.62.62,0,0,0,.62-.75L32.59,42.16l6-1.72A.51.51,0,0,0,39,40.1a1.29,1.29,0,0,1-.07-.55l-1.1-3.7,5.36,1.64L35.61,61.65a.7.7,0,0,0,.48.89h.2a.84.84,0,0,0,.69-.48l7.55-24.15,11.66,3.63h.21a.83.83,0,0,0,.69-.48L62,25.56a.71.71,0,0,0-.48-.9l-19.9-6.24L41,9.84a.62.62,0,0,0-.76-.61L15.3,10.74a.63.63,0,0,0-.48.2.45.45,0,0,0-.14.48l.89,14.07L3.49,28.92a.75.75,0,0,0-.48.82Z"/><line class="cls-2" x1="38.28" y1="25.27" x2="55.8" y2="30.73"/><line class="cls-2" x1="36.62" y1="29.06" x2="54.67" y2="34.68"/><line class="cls-2" x1="20.2" y1="15.12" x2="36.7" y2="14.15"/><line class="cls-2" x1="20.19" y1="19.04" x2="36.74" y2="18.07"/><line class="cls-2" x1="10.79" y1="33.63" x2="28.39" y2="28.44"/><line class="cls-2" x1="11.68" y1="37.64" x2="29.82" y2="32.3"/><line class="cls-2" x1="12.85" y1="41.59" x2="30.98" y2="36.25"/></svg>